<svg xmlns="http://www.w3.org/2000/svg" version="1.1" xmlns:xlink="http://www.w3.org/1999/xlink" xmlns:svgjs="http://svgjs.dev/svgjs" width="1500" height="1500" viewBox="0 0 1500 1500"><rect width="1500" height="1500" fill="#ffffff"></rect><g transform="matrix(0.6666666666666666,0,0,0.6666666666666666,249.39393939393938,438.5856950067477)"><svg viewBox="0 0 396 247" data-background-color="#000000" preserveAspectRatio="xMidYMid meet" height="935" width="1500" xmlns="http://www.w3.org/2000/svg" xmlns:xlink="http://www.w3.org/1999/xlink"><g id="tight-bounds" transform="matrix(1,0,0,1,0.2400000000000091,-0.09999999999999432)"><svg viewBox="0 0 395.52 247.2" height="247.2" width="395.52"><g><svg></svg></g><g><svg viewBox="0 0 395.52 247.2" height="247.2" width="395.52"><mask id="740ecf2c-a064-4b6d-950f-0220368357fa"><rect width="640" height="400" fill="white"></rect><g transform="matrix(1,0,0,1,40.020711030082026,37.08)"><svg viewBox="0 0 315.47857793983593 173.04" height="173.04" width="315.47857793983593"><g><svg viewBox="0 0 315.47857793983593 173.04" height="173.04" width="315.47857793983593"><g><svg viewBox="0 0 315.47857793983593 173.04" height="173.04" width="315.47857793983593"><g><svg viewBox="0 0 315.47857793983593 173.04" height="173.04" width="315.47857793983593"><g id="SvgjsG4067"><svg viewBox="0 0 315.47857793983593 173.04" height="173.04" width="315.47857793983593" id="SvgjsSvg4066"><g><svg viewBox="0 0 315.47857793983593 173.04" height="173.04" width="315.47857793983593"><g transform="matrix(1,0,0,1,0,0)"><svg width="315.47857793983593" viewBox="-3.15 -41.5 100.99000000000001 55.85" height="173.04" data-palette-color="url(#9363b29a-3d0a-4a67-b004-0104b1d4adc5)"><path d="M9.35-24.5L9.35-24.5Q9.35-27 11.03-29.5 12.7-32 15.7-34L15.7-34Q18.25-35.65 21.18-36.58 24.1-37.5 26.9-37.5L26.9-37.5 28.9-37.5 21.4-2Q20.05 4.55 16.9 7.45 13.75 10.35 8.25 10.35L8.25 10.35Q4.8 10.35 2.83 8.45 0.85 6.55 0.85 3.3L0.85 3.3Q0.85 0.45 2.55-1.48 4.25-3.4 6.95-3.4L6.95-3.4Q9.65-3.4 10.75-2.58 11.85-1.75 11.85-0.05L11.85-0.05Q11.85 0.35 11.78 0.88 11.7 1.4 11.55 1.95L11.55 1.95Q10.7 1.25 10.05 0.95 9.4 0.65 8.55 0.65L8.55 0.65Q7 0.65 6.03 1.7 5.05 2.75 5.05 4.35L5.05 4.35Q5.05 5.95 6.03 6.9 7 7.85 8.45 7.85L8.45 7.85Q10.4 7.85 11.43 6.48 12.45 5.1 13.2 1.7L13.2 1.7 21.05-34Q17.65-32.6 15.83-29.78 14-26.95 14-23.05L14-23.05Q14-22.1 14.13-21.4 14.25-20.7 14.55-20.05L14.55-20.05Q14.65-19.85 14.68-19.78 14.7-19.7 14.7-19.65L14.7-19.65Q11.9-19.65 10.63-20.83 9.35-22 9.35-24.5ZM35.15-4.55L35.15-4.55Q36.45-4.55 37.47-5.68 38.5-6.8 39.15-8.95L39.15-8.95 42.55-25 49.75-25 46.15-8Q46.05-7.55 46-7.18 45.95-6.8 45.95-6.4L45.95-6.4Q45.95-5.4 46.42-4.98 46.9-4.55 48-4.55L48-4.55Q49.3-4.55 50.35-5.7 51.4-6.85 52.05-8.95L52.05-8.95 54.15-8.95Q52.55-4.35 50-2.02 47.45 0.3 44.1 0.3L44.1 0.3Q41.95 0.3 40.65-0.93 39.35-2.15 39.15-4.45L39.15-4.45Q37.7-2.05 35.87-0.88 34.05 0.3 31.75 0.3L31.75 0.3Q29.25 0.3 27.82-1.28 26.4-2.85 26.4-5.7L26.4-5.7Q26.4-6.35 26.5-7.18 26.6-8 26.8-8.95L26.8-8.95 30.2-25 37.4-25 33.8-8Q33.7-7.6 33.67-7.28 33.65-6.95 33.65-6.6L33.65-6.6Q33.65-5.6 34.02-5.08 34.4-4.55 35.15-4.55ZM58.8-8.45L58.8-8.45Q58.8-6.5 59.34-5.53 59.9-4.55 61.3-4.55L61.3-4.55Q62.55-4.55 63.75-5.73 64.95-6.9 65.4-8.7L65.4-8.7 65.4-8.95 67.84-20.4Q67.7-21.2 67.17-21.68 66.65-22.15 65.8-22.15L65.8-22.15Q63.05-22.15 60.92-17.55 58.8-12.95 58.8-8.45ZM68.3-22.7L68.3-22.7 68.3-22.5 70.75-34 78.15-35 72.4-8Q72.3-7.55 72.25-7.18 72.2-6.8 72.2-6.4L72.2-6.4Q72.2-5.4 72.67-4.98 73.15-4.55 74.25-4.55L74.25-4.55Q75.55-4.55 76.59-5.7 77.65-6.85 78.3-8.95L78.3-8.95 80.4-8.95Q78.84-4.5 76.37-2.25 73.9 0 70.34 0L70.34 0Q68.3 0 67.02-1.13 65.75-2.25 65.45-4.3L65.45-4.3Q63.95-2 62.09-0.85 60.25 0.3 58.05 0.3L58.05 0.3Q54.95 0.3 53.17-1.8 51.4-3.9 51.4-7.75L51.4-7.75Q51.4-10.55 52.25-13.6 53.09-16.65 54.59-19.15L54.59-19.15Q56.45-22.1 58.9-23.68 61.34-25.25 64.25-25.25L64.25-25.25Q66.2-25.25 67.25-24.58 68.3-23.9 68.3-22.7ZM90.74-31.65L90.74-31.65Q90.74-30 89.57-28.85 88.39-27.7 86.74-27.7L86.74-27.7Q85.09-27.7 83.94-28.85 82.79-30 82.79-31.65L82.79-31.65Q82.79-33.3 83.94-34.48 85.09-35.65 86.74-35.65L86.74-35.65Q88.39-35.65 89.57-34.48 90.74-33.3 90.74-31.65ZM77.99-5.7L77.99-5.7Q77.99-6.35 78.09-7.18 78.19-8 78.39-8.95L78.39-8.95 81.79-25 88.99-25 85.39-8Q85.29-7.55 85.24-7.18 85.19-6.8 85.19-6.4L85.19-6.4Q85.19-5.4 85.67-4.98 86.14-4.55 87.24-4.55L87.24-4.55Q88.64-4.55 89.89-5.78 91.14-7 91.74-8.95L91.74-8.95 93.84-8.95Q92.24-4.4 89.54-2.05 86.84 0.3 83.34 0.3L83.34 0.3Q80.84 0.3 79.42-1.28 77.99-2.85 77.99-5.7Z" opacity="1" transform="matrix(1,0,0,1,0,0)" fill="black" class="wordmark-text-0" id="SvgjsPath4065" stroke-width="7" stroke="black" stroke-linejoin="round"></path></svg></g></svg></g></svg></g></svg></g></svg></g></svg></g></svg></g></mask><g transform="matrix(1,0,0,1,40.020711030082026,37.08)"><svg viewBox="0 0 315.47857793983593 173.04" height="173.04" width="315.47857793983593"><g><svg viewBox="0 0 315.47857793983593 173.04" height="173.04" width="315.47857793983593"><g><svg viewBox="0 0 315.47857793983593 173.04" height="173.04" width="315.47857793983593"><g><svg viewBox="0 0 315.47857793983593 173.04" height="173.04" width="315.47857793983593"><g id="textblocktransform"><svg viewBox="0 0 315.47857793983593 173.04" height="173.04" width="315.47857793983593" id="textblock"><g><svg viewBox="0 0 315.47857793983593 173.04" height="173.04" width="315.47857793983593"><g transform="matrix(1,0,0,1,0,0)"><svg width="315.47857793983593" viewBox="-3.15 -41.5 100.99000000000001 55.85" height="173.04" data-palette-color="url(#9363b29a-3d0a-4a67-b004-0104b1d4adc5)"></svg></g></svg></g></svg></g></svg></g></svg></g></svg></g></svg></g><g mask="url(#740ecf2c-a064-4b6d-950f-0220368357fa)"><g transform="matrix(2.7515859753848844, 0, 0, 2.7515859753848844, 89.30520762336046, 1)"><svg xmlns="http://www.w3.org/2000/svg" xmlns:xlink="http://www.w3.org/1999/xlink" version="1.1" x="0" y="0" viewBox="10.584625199999993 5.4438782 78.83074950000002 89.1122437" style="enable-background:new 0 0 100 100;" xml:space="preserve" height="89.1122437" width="78.83074950000002" class="icon-none" data-fill-palette-color="accent" id="none"></svg></g></g></svg></g><defs></defs><mask id="44d4c700-31a7-4cb4-9dba-47e3b127de89"><g id="SvgjsG4077"><svg viewBox="0 0 395.52 247.2" height="247.2" width="395.52"><g><svg></svg></g><g><svg viewBox="0 0 395.52 247.2" height="247.2" width="395.52"><mask id="SvgjsMask4076"><rect width="640" height="400" fill="black"></rect><g transform="matrix(1,0,0,1,40.020711030082026,37.08)"><svg viewBox="0 0 315.47857793983593 173.04" height="173.04" width="315.47857793983593"><g><svg viewBox="0 0 315.47857793983593 173.04" height="173.04" width="315.47857793983593"><g><svg viewBox="0 0 315.47857793983593 173.04" height="173.04" width="315.47857793983593"><g><svg viewBox="0 0 315.47857793983593 173.04" height="173.04" width="315.47857793983593"><g id="SvgjsG4075"><svg viewBox="0 0 315.47857793983593 173.04" height="173.04" width="315.47857793983593" id="SvgjsSvg4074"><g><svg viewBox="0 0 315.47857793983593 173.04" height="173.04" width="315.47857793983593"><g transform="matrix(1,0,0,1,0,0)"><svg width="315.47857793983593" viewBox="-3.15 -41.5 100.99000000000001 55.85" height="173.04" data-palette-color="url(#9363b29a-3d0a-4a67-b004-0104b1d4adc5)"><path d="M9.35-24.5L9.35-24.5Q9.35-27 11.03-29.5 12.7-32 15.7-34L15.7-34Q18.25-35.65 21.18-36.58 24.1-37.5 26.9-37.5L26.9-37.5 28.9-37.5 21.4-2Q20.05 4.55 16.9 7.45 13.75 10.35 8.25 10.35L8.25 10.35Q4.8 10.35 2.83 8.45 0.85 6.55 0.85 3.3L0.85 3.3Q0.85 0.45 2.55-1.48 4.25-3.4 6.95-3.4L6.95-3.4Q9.65-3.4 10.75-2.58 11.85-1.75 11.85-0.05L11.85-0.05Q11.85 0.35 11.78 0.88 11.7 1.4 11.55 1.95L11.55 1.95Q10.7 1.25 10.05 0.95 9.4 0.65 8.55 0.65L8.55 0.65Q7 0.65 6.03 1.7 5.05 2.75 5.05 4.35L5.05 4.35Q5.05 5.95 6.03 6.9 7 7.85 8.45 7.85L8.45 7.85Q10.4 7.85 11.43 6.48 12.45 5.1 13.2 1.7L13.2 1.7 21.05-34Q17.65-32.6 15.83-29.78 14-26.95 14-23.05L14-23.05Q14-22.1 14.13-21.4 14.25-20.7 14.55-20.05L14.55-20.05Q14.65-19.85 14.68-19.78 14.7-19.7 14.7-19.65L14.7-19.65Q11.9-19.65 10.63-20.83 9.35-22 9.35-24.5ZM35.15-4.55L35.15-4.55Q36.45-4.55 37.47-5.68 38.5-6.8 39.15-8.95L39.15-8.95 42.55-25 49.75-25 46.15-8Q46.05-7.55 46-7.18 45.95-6.8 45.95-6.4L45.95-6.4Q45.95-5.4 46.42-4.98 46.9-4.55 48-4.55L48-4.55Q49.3-4.55 50.35-5.7 51.4-6.85 52.05-8.95L52.05-8.95 54.15-8.95Q52.55-4.35 50-2.02 47.45 0.3 44.1 0.3L44.1 0.3Q41.95 0.3 40.65-0.93 39.35-2.15 39.15-4.45L39.15-4.45Q37.7-2.05 35.87-0.88 34.05 0.3 31.75 0.3L31.75 0.3Q29.25 0.3 27.82-1.28 26.4-2.85 26.4-5.7L26.4-5.7Q26.4-6.35 26.5-7.18 26.6-8 26.8-8.95L26.8-8.95 30.2-25 37.4-25 33.8-8Q33.7-7.6 33.67-7.28 33.65-6.95 33.65-6.6L33.65-6.6Q33.65-5.6 34.02-5.08 34.4-4.55 35.15-4.55ZM58.8-8.45L58.8-8.45Q58.8-6.5 59.34-5.53 59.9-4.55 61.3-4.55L61.3-4.55Q62.55-4.55 63.75-5.73 64.95-6.9 65.4-8.7L65.4-8.7 65.4-8.95 67.84-20.4Q67.7-21.2 67.17-21.68 66.65-22.15 65.8-22.15L65.8-22.15Q63.05-22.15 60.92-17.55 58.8-12.95 58.8-8.45ZM68.3-22.7L68.3-22.7 68.3-22.5 70.75-34 78.15-35 72.4-8Q72.3-7.55 72.25-7.18 72.2-6.8 72.2-6.4L72.2-6.4Q72.2-5.4 72.67-4.98 73.15-4.55 74.25-4.55L74.25-4.55Q75.55-4.55 76.59-5.7 77.65-6.85 78.3-8.95L78.3-8.95 80.4-8.95Q78.84-4.5 76.37-2.25 73.9 0 70.34 0L70.34 0Q68.3 0 67.02-1.13 65.75-2.25 65.45-4.3L65.45-4.3Q63.95-2 62.09-0.85 60.25 0.3 58.05 0.3L58.05 0.3Q54.95 0.3 53.17-1.8 51.4-3.9 51.4-7.75L51.4-7.75Q51.4-10.55 52.25-13.6 53.09-16.65 54.59-19.15L54.59-19.15Q56.45-22.1 58.9-23.68 61.34-25.25 64.25-25.25L64.25-25.25Q66.2-25.25 67.25-24.58 68.3-23.9 68.3-22.7ZM90.74-31.65L90.74-31.65Q90.74-30 89.57-28.85 88.39-27.7 86.74-27.7L86.74-27.7Q85.09-27.7 83.94-28.85 82.79-30 82.79-31.65L82.79-31.65Q82.79-33.3 83.94-34.48 85.09-35.65 86.74-35.65L86.74-35.65Q88.39-35.65 89.57-34.48 90.74-33.3 90.74-31.65ZM77.99-5.7L77.99-5.7Q77.99-6.35 78.09-7.18 78.19-8 78.39-8.95L78.39-8.95 81.79-25 88.99-25 85.39-8Q85.29-7.55 85.24-7.18 85.19-6.8 85.19-6.4L85.19-6.4Q85.19-5.4 85.67-4.98 86.14-4.55 87.24-4.55L87.24-4.55Q88.64-4.55 89.89-5.78 91.14-7 91.74-8.95L91.74-8.95 93.84-8.95Q92.24-4.4 89.54-2.05 86.84 0.3 83.34 0.3L83.34 0.3Q80.84 0.3 79.42-1.28 77.99-2.85 77.99-5.7Z" opacity="1" transform="matrix(1,0,0,1,0,0)" fill="black" class="wordmark-text-0" id="SvgjsPath4073" stroke-width="7" stroke="black" stroke-linejoin="round"></path></svg></g></svg></g></svg></g></svg></g></svg></g></svg></g></svg></g></mask><g transform="matrix(1,0,0,1,40.020711030082026,37.08)"><svg viewBox="0 0 315.47857793983593 173.04" height="173.04" width="315.47857793983593"><g><svg viewBox="0 0 315.47857793983593 173.04" height="173.04" width="315.47857793983593"><g><svg viewBox="0 0 315.47857793983593 173.04" height="173.04" width="315.47857793983593"><g><svg viewBox="0 0 315.47857793983593 173.04" height="173.04" width="315.47857793983593"><g id="SvgjsG4072"><svg viewBox="0 0 315.47857793983593 173.04" height="173.04" width="315.47857793983593" id="SvgjsSvg4071"><g><svg viewBox="0 0 315.47857793983593 173.04" height="173.04" width="315.47857793983593"><g transform="matrix(1,0,0,1,0,0)"><svg width="315.47857793983593" viewBox="-3.15 -41.5 100.99000000000001 55.85" height="173.04" data-palette-color="url(#9363b29a-3d0a-4a67-b004-0104b1d4adc5)"><path d="M9.35-24.5L9.35-24.5Q9.35-27 11.03-29.5 12.7-32 15.7-34L15.7-34Q18.25-35.65 21.18-36.58 24.1-37.5 26.9-37.5L26.9-37.5 28.9-37.5 21.4-2Q20.05 4.55 16.9 7.45 13.75 10.35 8.25 10.35L8.25 10.35Q4.8 10.35 2.83 8.45 0.85 6.55 0.85 3.3L0.85 3.3Q0.85 0.45 2.55-1.48 4.25-3.4 6.95-3.4L6.95-3.4Q9.65-3.4 10.75-2.58 11.85-1.75 11.85-0.05L11.85-0.05Q11.85 0.35 11.78 0.88 11.7 1.4 11.55 1.95L11.55 1.95Q10.7 1.25 10.05 0.95 9.4 0.65 8.55 0.65L8.55 0.65Q7 0.65 6.03 1.7 5.05 2.75 5.05 4.35L5.05 4.35Q5.05 5.95 6.03 6.9 7 7.85 8.45 7.85L8.45 7.85Q10.4 7.85 11.43 6.48 12.45 5.1 13.2 1.7L13.2 1.7 21.05-34Q17.65-32.6 15.83-29.78 14-26.95 14-23.05L14-23.05Q14-22.1 14.13-21.4 14.25-20.7 14.55-20.05L14.55-20.05Q14.65-19.85 14.68-19.78 14.7-19.7 14.7-19.65L14.7-19.65Q11.9-19.65 10.63-20.83 9.35-22 9.35-24.5ZM35.15-4.55L35.15-4.55Q36.45-4.55 37.47-5.68 38.5-6.8 39.15-8.95L39.15-8.95 42.55-25 49.75-25 46.15-8Q46.05-7.55 46-7.18 45.95-6.8 45.95-6.4L45.95-6.4Q45.95-5.4 46.42-4.98 46.9-4.55 48-4.55L48-4.55Q49.3-4.55 50.35-5.7 51.4-6.85 52.05-8.95L52.05-8.95 54.15-8.95Q52.55-4.35 50-2.02 47.45 0.3 44.1 0.3L44.1 0.3Q41.95 0.3 40.65-0.93 39.35-2.15 39.15-4.45L39.15-4.45Q37.7-2.05 35.87-0.88 34.05 0.3 31.75 0.3L31.75 0.3Q29.25 0.3 27.82-1.28 26.4-2.85 26.4-5.7L26.4-5.7Q26.4-6.35 26.5-7.18 26.6-8 26.8-8.95L26.8-8.95 30.2-25 37.4-25 33.8-8Q33.7-7.6 33.67-7.28 33.65-6.95 33.65-6.6L33.65-6.6Q33.65-5.6 34.02-5.08 34.4-4.55 35.15-4.55ZM58.8-8.45L58.8-8.45Q58.8-6.5 59.34-5.53 59.9-4.55 61.3-4.55L61.3-4.55Q62.55-4.55 63.75-5.73 64.95-6.9 65.4-8.7L65.4-8.7 65.4-8.95 67.84-20.4Q67.7-21.2 67.17-21.68 66.65-22.15 65.8-22.15L65.8-22.15Q63.05-22.15 60.92-17.55 58.8-12.95 58.8-8.45ZM68.3-22.7L68.3-22.7 68.3-22.5 70.75-34 78.15-35 72.4-8Q72.3-7.55 72.25-7.18 72.2-6.8 72.2-6.4L72.2-6.4Q72.2-5.4 72.67-4.98 73.15-4.55 74.25-4.55L74.25-4.55Q75.55-4.55 76.59-5.7 77.65-6.85 78.3-8.95L78.3-8.95 80.4-8.95Q78.84-4.5 76.37-2.25 73.9 0 70.34 0L70.34 0Q68.3 0 67.02-1.13 65.75-2.25 65.45-4.3L65.45-4.3Q63.95-2 62.09-0.85 60.25 0.3 58.05 0.3L58.05 0.3Q54.95 0.3 53.17-1.8 51.4-3.9 51.4-7.75L51.4-7.75Q51.4-10.55 52.25-13.6 53.09-16.65 54.59-19.15L54.59-19.15Q56.45-22.1 58.9-23.68 61.34-25.25 64.25-25.25L64.25-25.25Q66.2-25.25 67.25-24.58 68.3-23.9 68.3-22.7ZM90.74-31.65L90.74-31.65Q90.74-30 89.57-28.85 88.39-27.7 86.74-27.7L86.74-27.7Q85.09-27.7 83.94-28.85 82.79-30 82.79-31.65L82.79-31.65Q82.79-33.3 83.94-34.48 85.09-35.65 86.74-35.65L86.74-35.65Q88.39-35.65 89.57-34.48 90.74-33.3 90.74-31.65ZM77.99-5.7L77.99-5.7Q77.99-6.35 78.09-7.18 78.19-8 78.39-8.95L78.39-8.95 81.79-25 88.99-25 85.39-8Q85.29-7.55 85.24-7.18 85.19-6.8 85.19-6.4L85.19-6.4Q85.19-5.4 85.67-4.98 86.14-4.55 87.24-4.55L87.24-4.55Q88.64-4.55 89.89-5.78 91.14-7 91.74-8.95L91.74-8.95 93.84-8.95Q92.24-4.4 89.54-2.05 86.84 0.3 83.34 0.3L83.34 0.3Q80.84 0.3 79.42-1.28 77.99-2.85 77.99-5.7Z" opacity="1" transform="matrix(1,0,0,1,0,0)" fill="white" class="wordmark-text-0" id="SvgjsPath4070"></path></svg></g></svg></g></svg></g></svg></g></svg></g></svg></g></svg></g><g mask="url(#740ecf2c-a064-4b6d-950f-0220368357fa)"><g transform="matrix(2.7515859753848844, 0, 0, 2.7515859753848844, 89.30520762336046, 1)"><svg xmlns="http://www.w3.org/2000/svg" xmlns:xlink="http://www.w3.org/1999/xlink" version="1.1" x="0" y="0" viewBox="10.584625199999993 5.4438782 78.83074950000002 89.1122437" style="enable-background:new 0 0 100 100;" xml:space="preserve" height="89.1122437" width="78.83074950000002" class="icon-none" data-fill-palette-color="accent" id="SvgjsSvg4069"><g fill="black"><path d="M74.184 48.757c-1.416-0.865-3.049-1.297-4.707-1.332-2.417-0.051-4.743 0.956-6.529 2.585-3.563 3.249-6.416 5.503-12.948 5.503-6.535 0-9.499-2.318-12.896-5.476-1.561-1.452-3.54-2.451-5.666-2.591-1.965-0.13-3.945 0.288-5.622 1.311-5.044 3.08-15.232 12.56-15.231 38.881 0 1.038 0.016 2.039 0.045 3.011 0.065 2.181 1.866 3.907 4.048 3.907h13.589c-0.327-0.146-0.541-0.484-0.541-1.298 0-1.412 0.632-1.412 1.412-1.412 0 0-1.474-0.642-1.551-1.438l-2.383-24.714c-0.095-0.981 0.631-1.781 1.622-1.781h46.626c0.99 0 1.716 0.8 1.622 1.781l-2.383 24.714c-0.077 0.796-1.551 1.438-1.551 1.438 0.78 0 1.412 0.114 1.412 1.412 0 0.798-0.24 1.146-0.605 1.298h13.375c2.182 0 3.983-1.726 4.048-3.906 0.029-0.972 0.045-1.974 0.045-3.012C89.415 61.317 79.228 51.837 74.184 48.757z" fill="black"></path><path d="M50.139 76.072c-1.696 0-3.055 1.304-3.036 2.895 0.019 1.57 1.379 2.827 3.036 2.827 1.657 0 3.016-1.258 3.036-2.827C53.195 77.377 51.836 76.072 50.139 76.072z" fill="black"></path><path d="M36.067 40.263c0.677 0.709 1.408 1.363 2.185 1.962 3.189 2.644 7.282 4.234 11.748 4.235 4.466 0 8.559-1.591 11.747-4.234 0.828-0.639 1.601-1.341 2.315-2.104 7.42 3.22 14.68 1.019 14.679 1.019s-5.159-2.126-6.981-14.748C69.729 12.321 60.454 5.444 50.227 5.444c-10.227 0-19.502 6.877-21.533 20.949-1.822 12.623-6.981 14.749-6.981 14.748S28.761 43.281 36.067 40.263z" fill="black"></path></g></svg></g></g></svg></g><defs><mask></mask></defs></svg><rect width="395.52" height="247.2" fill="black" stroke="none" visibility="hidden"></rect></g></mask><linearGradient x1="0" x2="1" y1="0.548" y2="0.55" id="9363b29a-3d0a-4a67-b004-0104b1d4adc5"><stop stop-color="#ff6cab" offset="0"></stop><stop stop-color="#7366ff" offset="1"></stop></linearGradient><rect width="395.52" height="247.2" fill="#000000" mask="url(#44d4c700-31a7-4cb4-9dba-47e3b127de89)" data-fill-palette-color="primary"></rect><mask id="c033c205-b94b-43d8-b547-b940389cc932"><g id="SvgjsG4112"><svg viewBox="0 0 395.52 247.2" height="247.2" width="395.52"><g><svg></svg></g><g><svg viewBox="0 0 395.52 247.2" height="247.2" width="395.52"><mask id="SvgjsMask4111"><rect width="640" height="400" fill="black"></rect><g transform="matrix(1,0,0,1,40.020711030082026,37.08)"><svg viewBox="0 0 315.47857793983593 173.04" height="173.04" width="315.47857793983593"><g><svg viewBox="0 0 315.47857793983593 173.04" height="173.04" width="315.47857793983593"><g><svg viewBox="0 0 315.47857793983593 173.04" height="173.04" width="315.47857793983593"><g><svg viewBox="0 0 315.47857793983593 173.04" height="173.04" width="315.47857793983593"><g id="SvgjsG4110"><svg viewBox="0 0 315.47857793983593 173.04" height="173.04" width="315.47857793983593" id="SvgjsSvg4109"><g><svg viewBox="0 0 315.47857793983593 173.04" height="173.04" width="315.47857793983593"><g transform="matrix(1,0,0,1,0,0)"><svg width="315.47857793983593" viewBox="-3.15 -41.5 100.99000000000001 55.85" height="173.04" data-palette-color="url(#9363b29a-3d0a-4a67-b004-0104b1d4adc5)"><path d="M9.35-24.5L9.35-24.5Q9.35-27 11.03-29.5 12.7-32 15.7-34L15.7-34Q18.25-35.65 21.18-36.58 24.1-37.5 26.9-37.5L26.9-37.5 28.9-37.5 21.4-2Q20.05 4.55 16.9 7.45 13.75 10.35 8.25 10.35L8.25 10.35Q4.8 10.35 2.83 8.45 0.85 6.55 0.85 3.3L0.85 3.3Q0.85 0.45 2.55-1.48 4.25-3.4 6.95-3.4L6.95-3.4Q9.65-3.4 10.75-2.58 11.85-1.75 11.85-0.05L11.85-0.05Q11.85 0.35 11.78 0.88 11.7 1.4 11.55 1.95L11.55 1.95Q10.7 1.25 10.05 0.95 9.4 0.65 8.55 0.65L8.55 0.65Q7 0.65 6.03 1.7 5.05 2.75 5.05 4.35L5.05 4.35Q5.05 5.95 6.03 6.9 7 7.85 8.45 7.85L8.45 7.85Q10.4 7.85 11.43 6.48 12.45 5.1 13.2 1.7L13.2 1.7 21.05-34Q17.65-32.6 15.83-29.78 14-26.95 14-23.05L14-23.05Q14-22.1 14.13-21.4 14.25-20.7 14.55-20.05L14.55-20.05Q14.65-19.85 14.68-19.78 14.7-19.7 14.7-19.65L14.7-19.65Q11.9-19.65 10.63-20.83 9.35-22 9.35-24.5ZM35.15-4.55L35.15-4.55Q36.45-4.55 37.47-5.68 38.5-6.8 39.15-8.95L39.15-8.95 42.55-25 49.75-25 46.15-8Q46.05-7.55 46-7.18 45.95-6.8 45.95-6.4L45.95-6.4Q45.95-5.4 46.42-4.98 46.9-4.55 48-4.55L48-4.55Q49.3-4.55 50.35-5.7 51.4-6.85 52.05-8.95L52.05-8.95 54.15-8.95Q52.55-4.35 50-2.02 47.45 0.3 44.1 0.3L44.1 0.3Q41.95 0.3 40.65-0.93 39.35-2.15 39.15-4.45L39.15-4.45Q37.7-2.05 35.87-0.88 34.05 0.3 31.75 0.3L31.75 0.3Q29.25 0.3 27.82-1.28 26.4-2.85 26.4-5.7L26.4-5.7Q26.4-6.35 26.5-7.18 26.6-8 26.8-8.95L26.8-8.95 30.2-25 37.4-25 33.8-8Q33.7-7.6 33.67-7.28 33.65-6.95 33.65-6.6L33.65-6.6Q33.65-5.6 34.02-5.08 34.4-4.55 35.15-4.55ZM58.8-8.45L58.8-8.45Q58.8-6.5 59.34-5.53 59.9-4.55 61.3-4.55L61.3-4.55Q62.55-4.55 63.75-5.73 64.95-6.9 65.4-8.7L65.4-8.7 65.4-8.95 67.84-20.4Q67.7-21.2 67.17-21.68 66.65-22.15 65.8-22.15L65.8-22.15Q63.05-22.15 60.92-17.55 58.8-12.95 58.8-8.45ZM68.3-22.7L68.3-22.7 68.3-22.5 70.75-34 78.15-35 72.4-8Q72.3-7.55 72.25-7.18 72.2-6.8 72.2-6.4L72.2-6.4Q72.2-5.4 72.67-4.98 73.15-4.55 74.25-4.55L74.25-4.55Q75.55-4.55 76.59-5.7 77.65-6.85 78.3-8.95L78.3-8.95 80.4-8.95Q78.84-4.5 76.37-2.25 73.9 0 70.34 0L70.34 0Q68.3 0 67.02-1.13 65.75-2.25 65.45-4.3L65.45-4.3Q63.95-2 62.09-0.85 60.25 0.3 58.05 0.3L58.05 0.3Q54.95 0.3 53.17-1.8 51.4-3.9 51.4-7.75L51.4-7.75Q51.4-10.55 52.25-13.6 53.09-16.65 54.59-19.15L54.59-19.15Q56.45-22.1 58.9-23.68 61.34-25.25 64.25-25.25L64.25-25.25Q66.2-25.25 67.25-24.58 68.3-23.9 68.3-22.7ZM90.74-31.65L90.74-31.65Q90.74-30 89.57-28.85 88.39-27.7 86.74-27.7L86.74-27.7Q85.09-27.7 83.94-28.85 82.79-30 82.79-31.65L82.79-31.65Q82.79-33.3 83.94-34.48 85.09-35.65 86.74-35.65L86.74-35.65Q88.39-35.65 89.57-34.48 90.74-33.3 90.74-31.65ZM77.99-5.7L77.99-5.7Q77.99-6.35 78.09-7.18 78.19-8 78.39-8.95L78.39-8.95 81.79-25 88.99-25 85.39-8Q85.29-7.55 85.24-7.18 85.19-6.8 85.19-6.4L85.19-6.4Q85.19-5.4 85.67-4.98 86.14-4.55 87.24-4.55L87.24-4.55Q88.64-4.55 89.89-5.78 91.14-7 91.74-8.95L91.74-8.95 93.84-8.95Q92.24-4.4 89.54-2.05 86.84 0.3 83.34 0.3L83.34 0.3Q80.84 0.3 79.42-1.28 77.99-2.85 77.99-5.7Z" opacity="1" transform="matrix(1,0,0,1,0,0)" fill="black" class="wordmark-text-0" id="SvgjsPath4108" stroke-width="7" stroke="black" stroke-linejoin="round"></path></svg></g></svg></g></svg></g></svg></g></svg></g></svg></g></svg></g></mask><g transform="matrix(1,0,0,1,40.020711030082026,37.08)"><svg viewBox="0 0 315.47857793983593 173.04" height="173.04" width="315.47857793983593"><g><svg viewBox="0 0 315.47857793983593 173.04" height="173.04" width="315.47857793983593"><g><svg viewBox="0 0 315.47857793983593 173.04" height="173.04" width="315.47857793983593"><g><svg viewBox="0 0 315.47857793983593 173.04" height="173.04" width="315.47857793983593"><g id="SvgjsG4107"><svg viewBox="0 0 315.47857793983593 173.04" height="173.04" width="315.47857793983593" id="SvgjsSvg4106"><g><svg viewBox="0 0 315.47857793983593 173.04" height="173.04" width="315.47857793983593"><g transform="matrix(1,0,0,1,0,0)"><svg width="315.47857793983593" viewBox="-3.15 -41.5 100.99000000000001 55.85" height="173.04" data-palette-color="url(#9363b29a-3d0a-4a67-b004-0104b1d4adc5)"></svg></g></svg></g></svg></g></svg></g></svg></g></svg></g></svg></g><g mask="url(#740ecf2c-a064-4b6d-950f-0220368357fa)"><g transform="matrix(2.7515859753848844, 0, 0, 2.7515859753848844, 89.30520762336046, 1)"><svg xmlns="http://www.w3.org/2000/svg" xmlns:xlink="http://www.w3.org/1999/xlink" version="1.1" x="0" y="0" viewBox="10.584625199999993 5.4438782 78.83074950000002 89.1122437" style="enable-background:new 0 0 100 100;" xml:space="preserve" height="89.1122437" width="78.83074950000002" class="icon-none" data-fill-palette-color="accent" id="SvgjsSvg4105"><g fill="white"><path d="M74.184 48.757c-1.416-0.865-3.049-1.297-4.707-1.332-2.417-0.051-4.743 0.956-6.529 2.585-3.563 3.249-6.416 5.503-12.948 5.503-6.535 0-9.499-2.318-12.896-5.476-1.561-1.452-3.54-2.451-5.666-2.591-1.965-0.13-3.945 0.288-5.622 1.311-5.044 3.08-15.232 12.56-15.231 38.881 0 1.038 0.016 2.039 0.045 3.011 0.065 2.181 1.866 3.907 4.048 3.907h13.589c-0.327-0.146-0.541-0.484-0.541-1.298 0-1.412 0.632-1.412 1.412-1.412 0 0-1.474-0.642-1.551-1.438l-2.383-24.714c-0.095-0.981 0.631-1.781 1.622-1.781h46.626c0.99 0 1.716 0.8 1.622 1.781l-2.383 24.714c-0.077 0.796-1.551 1.438-1.551 1.438 0.78 0 1.412 0.114 1.412 1.412 0 0.798-0.24 1.146-0.605 1.298h13.375c2.182 0 3.983-1.726 4.048-3.906 0.029-0.972 0.045-1.974 0.045-3.012C89.415 61.317 79.228 51.837 74.184 48.757z" fill="white"></path><path d="M50.139 76.072c-1.696 0-3.055 1.304-3.036 2.895 0.019 1.57 1.379 2.827 3.036 2.827 1.657 0 3.016-1.258 3.036-2.827C53.195 77.377 51.836 76.072 50.139 76.072z" fill="white"></path><path d="M36.067 40.263c0.677 0.709 1.408 1.363 2.185 1.962 3.189 2.644 7.282 4.234 11.748 4.235 4.466 0 8.559-1.591 11.747-4.234 0.828-0.639 1.601-1.341 2.315-2.104 7.42 3.22 14.68 1.019 14.679 1.019s-5.159-2.126-6.981-14.748C69.729 12.321 60.454 5.444 50.227 5.444c-10.227 0-19.502 6.877-21.533 20.949-1.822 12.623-6.981 14.749-6.981 14.748S28.761 43.281 36.067 40.263z" fill="white"></path></g></svg></g></g></svg></g><defs><mask></mask></defs><mask><g id="SvgjsG4104"><svg viewBox="0 0 395.52 247.2" height="247.2" width="395.52"><g><svg></svg></g><g><svg viewBox="0 0 395.52 247.2" height="247.2" width="395.52"><mask id="SvgjsMask4103"><rect width="640" height="400" fill="black"></rect><g transform="matrix(1,0,0,1,40.020711030082026,37.08)"><svg viewBox="0 0 315.47857793983593 173.04" height="173.04" width="315.47857793983593"><g><svg viewBox="0 0 315.47857793983593 173.04" height="173.04" width="315.47857793983593"><g><svg viewBox="0 0 315.47857793983593 173.04" height="173.04" width="315.47857793983593"><g><svg viewBox="0 0 315.47857793983593 173.04" height="173.04" width="315.47857793983593"><g id="SvgjsG4102"><svg viewBox="0 0 315.47857793983593 173.04" height="173.04" width="315.47857793983593" id="SvgjsSvg4101"><g><svg viewBox="0 0 315.47857793983593 173.04" height="173.04" width="315.47857793983593"><g transform="matrix(1,0,0,1,0,0)"><svg width="315.47857793983593" viewBox="-3.15 -41.5 100.99000000000001 55.85" height="173.04" data-palette-color="url(#9363b29a-3d0a-4a67-b004-0104b1d4adc5)"><path d="M9.35-24.5L9.35-24.5Q9.35-27 11.03-29.5 12.7-32 15.7-34L15.7-34Q18.25-35.65 21.18-36.58 24.1-37.5 26.9-37.5L26.9-37.5 28.9-37.5 21.4-2Q20.05 4.55 16.9 7.45 13.75 10.35 8.25 10.35L8.25 10.35Q4.8 10.35 2.83 8.45 0.85 6.55 0.85 3.3L0.85 3.3Q0.85 0.45 2.55-1.48 4.25-3.4 6.95-3.4L6.95-3.4Q9.65-3.4 10.75-2.58 11.85-1.75 11.85-0.05L11.85-0.05Q11.85 0.35 11.78 0.88 11.7 1.4 11.55 1.95L11.55 1.95Q10.7 1.25 10.05 0.95 9.4 0.65 8.55 0.65L8.55 0.65Q7 0.65 6.03 1.7 5.05 2.75 5.05 4.35L5.05 4.35Q5.05 5.95 6.03 6.9 7 7.85 8.45 7.85L8.45 7.85Q10.4 7.85 11.43 6.48 12.45 5.1 13.2 1.7L13.2 1.7 21.05-34Q17.65-32.6 15.83-29.78 14-26.95 14-23.05L14-23.05Q14-22.1 14.13-21.4 14.25-20.7 14.55-20.05L14.55-20.05Q14.65-19.85 14.68-19.78 14.7-19.7 14.7-19.65L14.7-19.65Q11.9-19.65 10.63-20.83 9.35-22 9.35-24.5ZM35.15-4.55L35.15-4.55Q36.45-4.55 37.47-5.68 38.5-6.8 39.15-8.95L39.15-8.95 42.55-25 49.75-25 46.15-8Q46.05-7.55 46-7.18 45.95-6.8 45.95-6.4L45.95-6.4Q45.95-5.4 46.42-4.98 46.9-4.55 48-4.55L48-4.55Q49.3-4.55 50.35-5.7 51.4-6.85 52.05-8.95L52.05-8.95 54.15-8.95Q52.55-4.35 50-2.02 47.45 0.3 44.1 0.3L44.1 0.3Q41.95 0.3 40.65-0.93 39.35-2.15 39.15-4.45L39.15-4.45Q37.7-2.05 35.87-0.88 34.05 0.3 31.75 0.3L31.75 0.3Q29.25 0.3 27.82-1.28 26.4-2.85 26.4-5.7L26.4-5.7Q26.4-6.35 26.5-7.18 26.6-8 26.8-8.95L26.8-8.95 30.2-25 37.4-25 33.8-8Q33.7-7.6 33.67-7.28 33.65-6.95 33.65-6.6L33.65-6.6Q33.65-5.6 34.02-5.08 34.4-4.55 35.15-4.55ZM58.8-8.45L58.8-8.45Q58.8-6.5 59.34-5.53 59.9-4.55 61.3-4.55L61.3-4.55Q62.55-4.55 63.75-5.73 64.95-6.9 65.4-8.7L65.4-8.7 65.4-8.95 67.84-20.4Q67.7-21.2 67.17-21.68 66.65-22.15 65.8-22.15L65.8-22.15Q63.05-22.15 60.92-17.55 58.8-12.95 58.8-8.45ZM68.3-22.7L68.3-22.7 68.3-22.5 70.75-34 78.15-35 72.4-8Q72.3-7.55 72.25-7.18 72.2-6.8 72.2-6.4L72.2-6.4Q72.2-5.4 72.67-4.98 73.15-4.55 74.25-4.55L74.25-4.55Q75.55-4.55 76.59-5.7 77.65-6.85 78.3-8.95L78.3-8.95 80.4-8.95Q78.84-4.5 76.37-2.25 73.9 0 70.34 0L70.34 0Q68.3 0 67.02-1.13 65.75-2.25 65.45-4.3L65.45-4.3Q63.95-2 62.09-0.85 60.25 0.3 58.05 0.3L58.05 0.3Q54.95 0.3 53.17-1.8 51.4-3.9 51.4-7.75L51.4-7.75Q51.4-10.55 52.25-13.6 53.09-16.65 54.59-19.15L54.59-19.15Q56.45-22.1 58.9-23.68 61.34-25.25 64.25-25.25L64.25-25.25Q66.2-25.25 67.25-24.58 68.3-23.9 68.3-22.7ZM90.74-31.65L90.74-31.65Q90.74-30 89.57-28.85 88.39-27.7 86.74-27.7L86.74-27.7Q85.09-27.7 83.94-28.85 82.79-30 82.79-31.65L82.79-31.65Q82.79-33.3 83.94-34.48 85.09-35.65 86.74-35.65L86.74-35.65Q88.39-35.65 89.57-34.48 90.74-33.3 90.74-31.65ZM77.99-5.7L77.99-5.7Q77.99-6.35 78.09-7.18 78.19-8 78.39-8.95L78.39-8.95 81.79-25 88.99-25 85.39-8Q85.29-7.55 85.24-7.18 85.19-6.8 85.19-6.4L85.19-6.4Q85.19-5.4 85.67-4.98 86.14-4.55 87.24-4.55L87.24-4.55Q88.64-4.55 89.89-5.78 91.14-7 91.74-8.95L91.74-8.95 93.84-8.95Q92.24-4.4 89.54-2.05 86.84 0.3 83.34 0.3L83.34 0.3Q80.84 0.3 79.42-1.28 77.99-2.85 77.99-5.7Z" opacity="1" transform="matrix(1,0,0,1,0,0)" fill="black" class="wordmark-text-0" id="SvgjsPath4100" stroke-width="7" stroke="black" stroke-linejoin="round"></path></svg></g></svg></g></svg></g></svg></g></svg></g></svg></g></svg></g></mask><g transform="matrix(1,0,0,1,40.020711030082026,37.08)"><svg viewBox="0 0 315.47857793983593 173.04" height="173.04" width="315.47857793983593"><g><svg viewBox="0 0 315.47857793983593 173.04" height="173.04" width="315.47857793983593"><g><svg viewBox="0 0 315.47857793983593 173.04" height="173.04" width="315.47857793983593"><g><svg viewBox="0 0 315.47857793983593 173.04" height="173.04" width="315.47857793983593"><g id="SvgjsG4099"><svg viewBox="0 0 315.47857793983593 173.04" height="173.04" width="315.47857793983593" id="SvgjsSvg4098"><g><svg viewBox="0 0 315.47857793983593 173.04" height="173.04" width="315.47857793983593"><g transform="matrix(1,0,0,1,0,0)"><svg width="315.47857793983593" viewBox="-3.15 -41.5 100.99000000000001 55.85" height="173.04" data-palette-color="url(#9363b29a-3d0a-4a67-b004-0104b1d4adc5)"><path d="M9.35-24.5L9.35-24.5Q9.35-27 11.03-29.5 12.7-32 15.7-34L15.7-34Q18.25-35.65 21.18-36.58 24.1-37.5 26.9-37.5L26.9-37.5 28.9-37.5 21.4-2Q20.05 4.55 16.9 7.45 13.75 10.35 8.25 10.35L8.25 10.35Q4.8 10.35 2.83 8.45 0.85 6.55 0.85 3.3L0.85 3.3Q0.85 0.45 2.55-1.48 4.25-3.4 6.95-3.4L6.95-3.4Q9.65-3.4 10.75-2.58 11.85-1.75 11.85-0.05L11.85-0.05Q11.85 0.35 11.78 0.88 11.7 1.4 11.55 1.95L11.55 1.95Q10.7 1.25 10.05 0.95 9.4 0.65 8.55 0.65L8.55 0.65Q7 0.65 6.03 1.7 5.05 2.75 5.05 4.35L5.05 4.35Q5.05 5.95 6.03 6.9 7 7.85 8.45 7.85L8.45 7.85Q10.4 7.85 11.43 6.48 12.45 5.1 13.2 1.7L13.2 1.7 21.05-34Q17.65-32.6 15.83-29.78 14-26.95 14-23.05L14-23.05Q14-22.1 14.13-21.4 14.25-20.7 14.55-20.05L14.55-20.05Q14.65-19.85 14.68-19.78 14.7-19.7 14.7-19.65L14.7-19.65Q11.9-19.65 10.63-20.83 9.35-22 9.35-24.5ZM35.15-4.55L35.15-4.55Q36.45-4.55 37.47-5.68 38.5-6.8 39.15-8.95L39.15-8.95 42.55-25 49.75-25 46.15-8Q46.05-7.55 46-7.18 45.95-6.8 45.95-6.4L45.95-6.4Q45.95-5.4 46.42-4.98 46.9-4.55 48-4.55L48-4.55Q49.3-4.55 50.35-5.7 51.4-6.85 52.05-8.95L52.05-8.95 54.15-8.95Q52.55-4.35 50-2.02 47.45 0.3 44.1 0.3L44.1 0.3Q41.95 0.3 40.65-0.93 39.35-2.15 39.15-4.45L39.15-4.45Q37.7-2.05 35.87-0.88 34.05 0.3 31.75 0.3L31.75 0.3Q29.25 0.3 27.82-1.28 26.4-2.85 26.4-5.7L26.4-5.7Q26.4-6.35 26.5-7.18 26.6-8 26.8-8.95L26.8-8.95 30.2-25 37.4-25 33.8-8Q33.7-7.6 33.67-7.28 33.65-6.95 33.65-6.6L33.65-6.6Q33.65-5.6 34.02-5.08 34.4-4.55 35.15-4.55ZM58.8-8.45L58.8-8.45Q58.8-6.5 59.34-5.53 59.9-4.55 61.3-4.55L61.3-4.55Q62.55-4.55 63.75-5.73 64.95-6.9 65.4-8.7L65.4-8.7 65.4-8.95 67.84-20.4Q67.7-21.2 67.17-21.68 66.65-22.15 65.8-22.15L65.8-22.15Q63.05-22.15 60.92-17.55 58.8-12.95 58.8-8.45ZM68.3-22.7L68.3-22.7 68.3-22.5 70.75-34 78.15-35 72.4-8Q72.3-7.55 72.25-7.18 72.2-6.8 72.2-6.4L72.2-6.4Q72.2-5.4 72.67-4.98 73.15-4.55 74.25-4.55L74.25-4.55Q75.55-4.55 76.59-5.7 77.65-6.85 78.3-8.95L78.3-8.95 80.4-8.95Q78.84-4.5 76.37-2.25 73.9 0 70.34 0L70.34 0Q68.3 0 67.02-1.13 65.75-2.25 65.45-4.3L65.45-4.3Q63.95-2 62.09-0.85 60.25 0.3 58.05 0.3L58.05 0.3Q54.95 0.3 53.17-1.8 51.4-3.9 51.4-7.75L51.4-7.75Q51.4-10.55 52.25-13.6 53.09-16.65 54.59-19.15L54.59-19.15Q56.45-22.1 58.9-23.68 61.34-25.25 64.25-25.25L64.25-25.25Q66.2-25.25 67.25-24.58 68.3-23.9 68.3-22.7ZM90.74-31.65L90.74-31.65Q90.74-30 89.57-28.85 88.39-27.7 86.74-27.7L86.74-27.7Q85.09-27.7 83.94-28.85 82.79-30 82.79-31.65L82.79-31.65Q82.79-33.3 83.94-34.48 85.09-35.65 86.74-35.65L86.74-35.65Q88.39-35.65 89.57-34.48 90.74-33.3 90.74-31.65ZM77.99-5.7L77.99-5.7Q77.99-6.35 78.09-7.18 78.19-8 78.39-8.95L78.39-8.95 81.79-25 88.99-25 85.39-8Q85.29-7.55 85.24-7.18 85.19-6.8 85.19-6.4L85.19-6.4Q85.19-5.4 85.67-4.98 86.14-4.55 87.24-4.55L87.24-4.55Q88.64-4.55 89.89-5.78 91.14-7 91.74-8.95L91.74-8.95 93.84-8.95Q92.24-4.4 89.54-2.05 86.84 0.3 83.34 0.3L83.34 0.3Q80.84 0.3 79.42-1.28 77.99-2.85 77.99-5.7Z" opacity="1" transform="matrix(1,0,0,1,0,0)" fill="black" class="wordmark-text-0" id="SvgjsPath4097"></path></svg></g></svg></g></svg></g></svg></g></svg></g></svg></g></svg></g><g mask="url(#740ecf2c-a064-4b6d-950f-0220368357fa)"><g transform="matrix(2.7515859753848844, 0, 0, 2.7515859753848844, 89.30520762336046, 1)"><svg xmlns="http://www.w3.org/2000/svg" xmlns:xlink="http://www.w3.org/1999/xlink" version="1.1" x="0" y="0" viewBox="10.584625199999993 5.4438782 78.83074950000002 89.1122437" style="enable-background:new 0 0 100 100;" xml:space="preserve" height="89.1122437" width="78.83074950000002" class="icon-none" data-fill-palette-color="accent" id="SvgjsSvg4096"><g fill="black"><path d="M74.184 48.757c-1.416-0.865-3.049-1.297-4.707-1.332-2.417-0.051-4.743 0.956-6.529 2.585-3.563 3.249-6.416 5.503-12.948 5.503-6.535 0-9.499-2.318-12.896-5.476-1.561-1.452-3.54-2.451-5.666-2.591-1.965-0.13-3.945 0.288-5.622 1.311-5.044 3.08-15.232 12.56-15.231 38.881 0 1.038 0.016 2.039 0.045 3.011 0.065 2.181 1.866 3.907 4.048 3.907h13.589c-0.327-0.146-0.541-0.484-0.541-1.298 0-1.412 0.632-1.412 1.412-1.412 0 0-1.474-0.642-1.551-1.438l-2.383-24.714c-0.095-0.981 0.631-1.781 1.622-1.781h46.626c0.99 0 1.716 0.8 1.622 1.781l-2.383 24.714c-0.077 0.796-1.551 1.438-1.551 1.438 0.78 0 1.412 0.114 1.412 1.412 0 0.798-0.24 1.146-0.605 1.298h13.375c2.182 0 3.983-1.726 4.048-3.906 0.029-0.972 0.045-1.974 0.045-3.012C89.415 61.317 79.228 51.837 74.184 48.757z" fill="black"></path><path d="M50.139 76.072c-1.696 0-3.055 1.304-3.036 2.895 0.019 1.57 1.379 2.827 3.036 2.827 1.657 0 3.016-1.258 3.036-2.827C53.195 77.377 51.836 76.072 50.139 76.072z" fill="black"></path><path d="M36.067 40.263c0.677 0.709 1.408 1.363 2.185 1.962 3.189 2.644 7.282 4.234 11.748 4.235 4.466 0 8.559-1.591 11.747-4.234 0.828-0.639 1.601-1.341 2.315-2.104 7.42 3.22 14.68 1.019 14.679 1.019s-5.159-2.126-6.981-14.748C69.729 12.321 60.454 5.444 50.227 5.444c-10.227 0-19.502 6.877-21.533 20.949-1.822 12.623-6.981 14.749-6.981 14.748S28.761 43.281 36.067 40.263z" fill="black"></path></g></svg></g></g></svg></g><defs><mask></mask></defs></svg><rect width="395.52" height="247.2" fill="black" stroke="none" visibility="hidden"></rect></g></mask></svg><rect width="395.52" height="247.2" fill="black" stroke="none" visibility="hidden"></rect></g></mask><linearGradient x1="0" x2="1" y1="0.548" y2="0.55" id="0cf177a4-f7e6-423f-ae93-5090d77886b6"><stop stop-color="#ff6cab" offset="0"></stop><stop stop-color="#7366ff" offset="1"></stop></linearGradient><rect width="395.52" height="247.2" fill="#000000" mask="url(#c033c205-b94b-43d8-b547-b940389cc932)" data-fill-palette-color="accent"></rect></svg><rect width="395.52" height="247.2" fill="none" stroke="none" visibility="hidden"></rect></g></svg></g></svg>