<svg width="25" height="21" viewBox="0 0 25 21" fill="none" xmlns="http://www.w3.org/2000/svg">
<path d="M12.5 0C10.3058 6.04016e-05 8.1502 0.625986 6.24995 1.81487C4.34971 3.00374 2.77174 4.71369 1.67465 6.77284C0.577551 8.83198 -1.39357e-05 11.1678 2.52189e-10 13.5455C1.39362e-05 15.9231 0.577606 18.2589 1.67472 20.3181C1.84049 20.6306 2.11404 20.859 2.43521 20.953C2.75637 21.047 3.09884 20.9989 3.38727 20.8192C3.6757 20.6396 3.88647 20.3432 3.9732 19.9952C4.05994 19.6472 4.01554 19.2761 3.84978 18.9635C2.96406 17.3193 2.4981 15.4492 2.49975 13.5454C2.50034 11.8836 2.85363 10.2442 3.5323 8.75406C4.21097 7.26387 5.19683 5.96278 6.41366 4.95139C7.63048 3.94001 9.04566 3.24543 10.5498 2.92135C12.0539 2.59728 13.6066 2.6524 15.088 3.08245C16.5693 3.5125 17.9395 4.30595 19.0926 5.40147C20.2457 6.49698 21.1509 7.8652 21.7381 9.40032C22.3253 10.9354 22.5788 12.5963 22.4791 14.2546C22.3793 15.9128 21.9289 17.524 21.1627 18.9635C21.0801 19.1181 21.0265 19.2889 21.005 19.4661C20.9835 19.6432 20.9946 19.8232 21.0376 19.9957C21.0806 20.1682 21.1546 20.3297 21.2555 20.4711C21.3563 20.6124 21.482 20.7307 21.6252 20.8192C21.9123 20.9958 22.2521 21.0422 22.5706 20.9484C22.8891 20.8545 23.1604 20.6279 23.3253 20.3181C24.4224 18.2589 25 15.9231 25 13.5455C25 11.1678 24.4224 8.83198 23.3254 6.77284C22.2283 4.71369 20.6503 3.00374 18.75 1.81487C16.8498 0.625986 14.6942 6.04016e-05 12.5 0ZM16.0501 7.80214L14.1125 9.88812C13.611 9.62016 13.0592 9.48111 12.5 9.48176C11.7583 9.48176 11.0333 9.72009 10.4166 10.1666C9.79986 10.6131 9.3192 11.2478 9.03536 11.9903C8.75153 12.7328 8.67726 13.5499 8.82196 14.3381C8.96666 15.1264 9.32382 15.8505 9.84828 16.4188C10.3727 16.9871 11.0409 17.3741 11.7684 17.5309C12.4958 17.6877 13.2499 17.6072 13.9351 17.2997C14.6203 16.9921 15.206 16.4713 15.6181 15.803C16.0302 15.1347 16.2501 14.3491 16.2501 13.5454C16.2492 12.944 16.1209 12.3508 15.8751 11.8116L17.8126 9.72558C17.9298 9.59966 18.0228 9.44984 18.0863 9.28478C18.1497 9.11972 18.1824 8.94267 18.1824 8.76386C18.1824 8.58504 18.1497 8.408 18.0863 8.24293C18.0228 8.07787 17.9298 7.92806 17.8126 7.80214C17.5784 7.54985 17.2616 7.40825 16.9314 7.40825C16.6011 7.40825 16.2843 7.54985 16.0501 7.80214ZM12.5 14.8999C12.1685 14.8999 11.8505 14.7572 11.6161 14.5032C11.3817 14.2492 11.25 13.9046 11.25 13.5454C11.25 13.1861 11.3817 12.8416 11.6161 12.5876C11.8505 12.3335 12.1685 12.1908 12.5 12.1908C12.8262 12.1887 13.1402 12.3248 13.375 12.5701C13.4946 12.6972 13.5895 12.849 13.6539 13.0165C13.7183 13.184 13.751 13.3639 13.75 13.5454C13.75 13.9046 13.6183 14.2492 13.3839 14.5032C13.1495 14.7572 12.8315 14.8999 12.5 14.8999Z" fill="#5A00FF"/>
</svg>
