<svg xmlns="http://www.w3.org/2000/svg" version="1.1" xmlns:xlink="http://www.w3.org/1999/xlink" xmlns:svgjs="http://svgjs.dev/svgjs" width="1500" height="1500" viewBox="0 0 1500 1500"><g transform="matrix(1,0,0,1,-0.3236151603499593,-0.3236151603499593)"><svg viewBox="0 0 343 343" data-background-color="#ffffff" preserveAspectRatio="xMidYMid meet" height="1500" width="1500" xmlns="http://www.w3.org/2000/svg" xmlns:xlink="http://www.w3.org/1999/xlink"><g id="tight-bounds" transform="matrix(1,0,0,1,0.07400000000001228,0.07400000000001228)"><svg viewBox="0 0 342.8515585177538 342.8515585177538" height="342.8515585177538" width="342.8515585177538"><g><svg></svg></g><g><svg viewBox="0 0 342.8515585177538 342.8515585177538" height="342.8515585177538" width="342.8515585177538"><g><path d="M0 171.426c0-94.676 76.75-171.426 171.426-171.426 94.676 0 171.426 76.75 171.426 171.426 0 94.676-76.75 171.426-171.426 171.426-94.676 0-171.426-76.75-171.426-171.426zM171.426 338.159c92.084 0 166.733-74.649 166.733-166.733 0-92.084-74.649-166.733-166.733-166.734-92.084 0-166.733 74.649-166.734 166.734 0 92.084 74.649 166.733 166.734 166.733z" data-fill-palette-color="tertiary" fill="#005cd3" stroke="transparent"></path><ellipse rx="164.56874808852183" ry="164.56874808852183" cx="171.4257792588769" cy="171.4257792588769" fill="#005cd3" stroke="transparent" stroke-width="0" fill-opacity="1" data-fill-palette-color="tertiary"></ellipse></g><g transform="matrix(1,0,0,1,64.84655864529836,103.31143933757447)"><svg viewBox="0 0 213.15844122715708 136.22867984260486" height="136.22867984260486" width="213.15844122715708"><g><svg viewBox="0 0 213.15844122715708 136.22867984260486" height="136.22867984260486" width="213.15844122715708"><g><svg viewBox="0 0 213.15844122715708 136.22867984260486" height="136.22867984260486" width="213.15844122715708"><g transform="matrix(1,0,0,1,0,84.19478936631431)"><svg viewBox="0 0 213.15844122715708 52.03389047629055" height="52.03389047629055" width="213.15844122715708"><g id="textblocktransform"><svg viewBox="0 0 213.15844122715708 52.03389047629055" height="52.03389047629055" width="213.15844122715708" id="textblock"><g><svg viewBox="0 0 213.15844122715708 52.03389047629055" height="52.03389047629055" width="213.15844122715708"><g transform="matrix(1,0,0,1,0,0)"><svg width="213.15844122715708" viewBox="2.6 -32.52 135.79 33.150000000000006" height="52.03389047629055" data-palette-color="#ffffff"><path d="M13.6 0.6L13.6 0.6Q9.98 0.6 7.53-0.86 5.08-2.33 3.84-5.13 2.6-7.93 2.6-11.9L2.6-11.9 2.6-19.45Q2.6-25.75 5.84-29.14 9.08-32.52 15.35-32.52L15.35-32.52Q17.6-32.52 19.44-32.16 21.28-31.8 22.7-31.21 24.13-30.63 25.15-29.98L25.15-29.98 25.53-26.23Q23.8-27.33 21.46-28.15 19.13-28.98 16.05-28.98L16.05-28.98Q11.4-28.98 9.11-26.5 6.83-24.03 6.83-19.38L6.83-19.38 6.83-11.93Q6.83-7.63 8.84-5.29 10.85-2.95 14.88-2.95L14.88-2.95Q16.93-2.95 18.39-3.65 19.85-4.35 20.79-5.5 21.73-6.65 22.15-8.03L22.15-8.03 22.15-15.9 22.83-14.43 15.3-14.43 15.3-17.88 26.2-17.88 26.2-5.25 22.13-5.28Q21.73-3.73 20.75-2.38 19.78-1.03 18.03-0.21 16.28 0.6 13.6 0.6ZM26.2 0L22.15 0 22.33-6.6 26.2-6.6 26.2 0ZM42.2 0.55L42.2 0.55Q36.95 0.55 34.38-2.29 31.82-5.13 31.82-10.33L31.82-10.33 31.82-14.13Q31.82-19.35 34.4-22.16 36.97-24.98 42.2-24.98L42.2-24.98Q43.75-24.98 45.02-24.69 46.3-24.4 47.31-23.94 48.32-23.48 49.02-22.98L49.02-22.98 49.37-19.45Q48.2-20.35 46.59-20.98 44.97-21.6 42.8-21.6L42.8-21.6Q39.3-21.6 37.59-19.66 35.87-17.73 35.87-14.03L35.87-14.03 35.87-10.43Q35.87-6.8 37.59-4.85 39.3-2.9 42.8-2.9L42.8-2.9Q45.05-2.9 46.69-3.53 48.32-4.15 49.6-5.05L49.6-5.05 49.22-1.48Q48.12-0.73 46.35-0.09 44.57 0.55 42.2 0.55ZM64.2 0.63L64.2 0.63Q58.95 0.63 56.23-2.21 53.52-5.05 53.52-10.38L53.52-10.38 53.52-14.1Q53.52-19.4 56.25-22.23 58.97-25.05 64.2-25.05L64.2-25.05Q69.45-25.05 72.16-22.23 74.87-19.4 74.87-14.1L74.87-14.1 74.87-10.38Q74.87-5.05 72.16-2.21 69.45 0.63 64.2 0.63ZM64.2-2.68L64.2-2.68Q67.45-2.68 69.13-4.6 70.82-6.53 70.82-10.15L70.82-10.15 70.82-14.33Q70.82-17.93 69.13-19.84 67.45-21.75 64.2-21.75L64.2-21.75Q60.97-21.75 59.27-19.84 57.57-17.93 57.57-14.33L57.57-14.33 57.57-10.15Q57.57-6.53 59.27-4.6 60.97-2.68 64.2-2.68ZM115.02-15.73L115.02 0 110.97 0 110.97-15.28Q110.97-17.2 110.48-18.61 109.99-20.03 108.88-20.8 107.77-21.58 105.89-21.58L105.89-21.58Q104.12-21.58 102.82-20.85 101.52-20.13 100.72-18.91 99.92-17.7 99.59-16.15L99.59-16.15 98.97-19.03 99.47-19.03Q99.87-20.6 100.82-21.95 101.77-23.3 103.39-24.13 105.02-24.95 107.42-24.95L107.42-24.95Q110.14-24.95 111.81-23.88 113.47-22.8 114.24-20.74 115.02-18.68 115.02-15.73L115.02-15.73ZM84.54-18.3L84.54 0 80.49 0 80.49-24.4 84.54-24.4 84.37-18.55 84.54-18.3ZM99.77-15.85L99.77 0 95.74 0 95.74-15.28Q95.74-17.2 95.26-18.61 94.77-20.03 93.67-20.8 92.57-21.58 90.69-21.58L90.69-21.58Q88.89-21.58 87.59-20.85 86.29-20.13 85.49-18.89 84.69-17.65 84.37-16.07L84.37-16.07 83.62-18.95 84.52-18.95Q84.89-20.6 85.82-21.96 86.74-23.33 88.33-24.14 89.92-24.95 92.19-24.95L92.19-24.95Q95.57-24.95 97.33-23.2 99.09-21.45 99.54-18.1L99.54-18.1Q99.67-17.6 99.72-17.01 99.77-16.43 99.77-15.85L99.77-15.85ZM128.92 0.55L128.92 0.55Q125.97 0.55 123.77-0.09 121.57-0.73 120.12-1.48L120.12-1.48 119.74-5.23Q121.57-4.28 123.75-3.58 125.94-2.88 128.72-2.88L128.72-2.88Q131.54-2.88 132.97-3.78 134.39-4.67 134.39-6.45L134.39-6.45 134.39-6.73Q134.39-7.88 133.85-8.63 133.31-9.38 131.92-9.95 130.52-10.53 127.94-11.1L127.94-11.1Q124.87-11.78 123.09-12.69 121.32-13.6 120.55-14.95 119.79-16.3 119.79-18.25L119.79-18.25 119.79-18.48Q119.79-21.68 122.02-23.33 124.24-24.98 128.72-24.98L128.72-24.98Q131.59-24.98 133.7-24.33 135.81-23.68 137.17-22.88L137.17-22.88 137.54-19.45Q135.92-20.4 133.81-21.03 131.72-21.65 129.09-21.65L129.09-21.65Q127.19-21.65 126.02-21.26 124.84-20.88 124.32-20.16 123.79-19.45 123.79-18.45L123.79-18.45 123.79-18.25Q123.79-17.15 124.32-16.39 124.84-15.63 126.2-15.06 127.57-14.5 129.99-13.98L129.99-13.98Q133.12-13.35 134.95-12.48 136.79-11.6 137.59-10.26 138.39-8.93 138.39-6.83L138.39-6.83 138.39-6.4Q138.39-2.95 135.99-1.2 133.59 0.55 128.92 0.55Z" opacity="1" transform="matrix(1,0,0,1,0,0)" fill="#ffffff" class="wordmark-text-0" data-fill-palette-color="quaternary" id="text-0"></path></svg></g></svg></g></svg></g></svg></g><g transform="matrix(1,0,0,1,63.9077418444239,0)"><svg viewBox="0 0 85.34295753830928 71.91083663823355" height="71.91083663823355" width="85.34295753830928"><g><svg xmlns="http://www.w3.org/2000/svg" data-name="Layer 101" viewBox="3.9999999999949405 11.240000000000002 91.98807047233976 77.51007580717348" x="0" y="0" height="71.91083663823355" width="85.34295753830928" class="icon-icon-0" data-fill-palette-color="quaternary" id="icon-0"><path d="M33.48 59.21L73.42 76.68h0a0.91 0.91 0 0 0 0.39 0.08h5.3a6.29 6.29 0 0 0 6.29-6.29V59.65a16.86 16.86 0 0 0 0-31.3V17.53a6.29 6.29 0 0 0-6.29-6.29H73.78a1.14 1.14 0 0 0-0.32 0.07h0L33.48 28.79A3.57 3.57 0 0 0 30 25.71h-8.6a3.58 3.58 0 0 0-3.59 3.58H10.31A6.32 6.32 0 0 0 4 35.61V52.39a6.32 6.32 0 0 0 6.31 6.31h7.45a3.56 3.56 0 0 0 1.65 3l3.67 22.95a4.84 4.84 0 0 0 4.81 4.1h7.29a1 1 0 0 0 0.76-0.35 1 1 0 0 0 0.22-0.8L32 61.63A3.58 3.58 0 0 0 33.48 59.21Zm51.93-28.7a14.89 14.89 0 0 1 0 27ZM74.82 13.24h4.3a4.29 4.29 0 0 1 4.29 4.29V70.47a4.29 4.29 0 0 1-4.29 4.29h-4.3ZM33.53 31l39.29-17.2V74.24L33.53 57ZM17.76 32.9h-5.5a4 4 0 0 0-4 4V44a1 1 0 0 0 2 0V36.92a2 2 0 0 1 2-2h5.5V56.7H10.31A4.32 4.32 0 0 1 6 52.39V35.61a4.32 4.32 0 0 1 4.31-4.31h7.45Zm2 25.81h0V29.3h0a1.59 1.59 0 0 1 1.59-1.58H30a1.58 1.58 0 0 1 1.58 1.58h0v1h0V57.7h0v1h0A1.58 1.58 0 0 1 30 60.29h-8.6A1.59 1.59 0 0 1 19.76 58.71ZM34 86.76H27.89a2.86 2.86 0 0 1-2.84-2.41L21.53 62.29h8.56Z" fill="#ffffff" data-fill-palette-color="quaternary"></path><path d="M69.61 19.16a1 1 0 0 0-1-0.08L57.54 24a1 1 0 0 0 0.8 1.83l0.06 0 9.66-4.22V46.29a1 1 0 0 0 2 0V20A1 1 0 0 0 69.61 19.16Z" fill="#ffffff" data-fill-palette-color="quaternary"></path></svg></g></svg></g><g></g></svg></g></svg></g></svg></g></svg></g><defs></defs></svg><rect width="342.8515585177538" height="342.8515585177538" fill="none" stroke="none" visibility="hidden"></rect></g></svg></g></svg>